<?xml version="1.0" standalone="no"?>
<!DOCTYPE svg PUBLIC "-//W3C//DTD SVG 20010904//EN"
 "http://www.w3.org/TR/2001/REC-SVG-20010904/DTD/svg10.dtd">
<svg version="1.0" xmlns="http://www.w3.org/2000/svg"
 width="169.000000pt" height="169.000000pt" viewBox="0 0 169.000000 169.000000"
 preserveAspectRatio="xMidYMid meet">
<metadata>
Created by potrace 1.11, written by Peter Selinger 2001-2013
</metadata>
<g transform="translate(0.000000,169.000000) scale(0.100000,-0.100000)"
fill="#000000" stroke="none">
<path d="M290 845 l0 -845 555 0 555 0 0 845 0 845 -555 0 -555 0 0 -845z
m397 650 c20 -8 67 -15 107 -15 90 -1 147 -14 167 -38 8 -11 35 -23 60 -27 93
-16 151 -63 163 -133 3 -22 15 -51 27 -66 16 -21 22 -46 26 -119 5 -83 3 -97
-17 -137 -12 -25 -35 -59 -50 -77 -16 -17 -35 -56 -44 -86 -27 -92 -119 -159
-234 -170 -110 -11 -126 -35 -99 -146 19 -77 12 -116 -28 -171 -13 -18 -30
-49 -36 -69 -13 -41 -46 -81 -67 -81 -7 0 -33 16 -57 36 -40 32 -44 40 -50 92
-3 31 -12 98 -20 148 -20 122 -19 206 5 284 26 84 25 105 -4 143 -19 27 -24
48 -29 127 -4 52 -11 163 -18 245 -13 185 -10 221 28 251 34 28 114 32 170 9z"/>
<path d="M802 1150 c-26 -31 -30 -60 -15 -110 10 -31 12 -69 8 -122 -6 -69 -5
-79 11 -85 23 -9 74 51 114 133 34 70 37 92 15 120 -8 10 -15 28 -15 40 0 30
-20 44 -62 44 -26 0 -44 -7 -56 -20z"/>
</g>
</svg>
